<?xml version="1.0" encoding="UTF-8"?><svg id="Layer_1" xmlns="http://www.w3.org/2000/svg" viewBox="0 0 480.54 158.09"><defs><style>.cls-1{fill:#0075c9;}.cls-2{fill:#ff671d;}.cls-3{fill:#a73439;}</style></defs><g><path class="cls-3" d="M86.09,8.6H32.74V87.65h14.43V22.23h38.92c6.06,0,6.06,2.86,6.06,4.23v28.03c0,1.37,0,4.23-6.06,4.23h-27.1l11.08,13.64h16.02c10.61,0,20.43-2.18,20.43-17.94l.31-27.01c0-12.48-6.97-18.81-20.74-18.81"/><path class="cls-2" d="M63.75,72.34v18.82c0,2.9,.75,4.35-6.28,4.35H20.49c-7.02,0-9.72-.47-9.72-5.99V49.9c0-3.02,1.78-5.73,7.41-5.73h29l-7.63-9.82H13.93C-1.02,34.36,.02,39.14,.02,48.71v42.27c0,9.57-.16,14.35,14.79,14.35H57.48c8.46,0,15.65,0,15.65-9.79l.33-11.28s-9.64-12.03-9.7-11.92"/><polygon class="cls-2" points="52.7 58.77 36.23 58.77 47.2 72.34 63.75 72.34 63.77 72.34 52.7 58.77"/><polygon class="cls-3" points="32.75 87.77 47.17 105.33 47.17 84.69 32.75 84.69 32.75 87.77"/></g><g><path class="cls-3" d="M200.96,27.04c0,4.26-2.74,6.4-8.2,6.4h-41.3V10.23h41.3c5.46,0,8.2,2.13,8.2,6.38v10.42Zm7.67-22.38c-1.64-1.47-3.77-2.61-6.38-3.44C199.65,.41,196.48,0,192.76,0h-53.69V69.24h12.38v-25.56h41.3c3.72,0,6.89-.42,9.49-1.24,2.61-.82,4.74-1.96,6.38-3.44,1.65-1.48,2.83-3.24,3.58-5.26,.74-2.04,1.12-4.3,1.12-6.78v-10.23c0-2.49-.38-4.76-1.12-6.78-.75-2.03-1.93-3.79-3.58-5.27"/><polygon class="cls-3" points="256.96 0 213.42 69.24 227.19 69.24 261.53 13.47 295.28 69.24 309.25 69.24 265.99 0 256.96 0"/><path class="cls-3" d="M331.21,1.23c-2.61,.83-4.72,1.96-6.37,3.44-1.64,1.49-2.84,3.23-3.59,5.27-.74,2.03-1.11,4.29-1.11,6.79V52.52c0,2.49,.38,4.76,1.11,6.79,.75,2.02,1.94,3.78,3.59,5.26,1.65,1.47,3.76,2.62,6.37,3.44,2.61,.82,5.76,1.22,9.5,1.22h52.76v-10.22h-52.76c-5.46,0-8.2-2.13-8.2-6.39V16.62c0-4.25,2.74-6.38,8.2-6.38h52.76V0h-52.76c-3.73,0-6.89,.4-9.5,1.23"/><polygon class="cls-3" points="480.54 10.23 480.54 0 413.18 0 413.18 69.24 480.54 69.24 480.54 59.01 425.54 59.01 425.54 37.77 477.76 37.77 477.76 27.54 425.54 27.54 425.54 10.23 480.54 10.23"/></g><g><path class="cls-2" d="M170.31,114.64c0,1.56-1.89,2.34-5.67,2.34h-14.9c-3.77,0-5.66-.82-5.66-2.44v-20.27c0-1.62,1.89-2.43,5.66-2.43h26.42v-5.27h-26.42c-8.02,0-12.04,2.57-12.04,7.7v20.27c0,5.13,4.02,7.71,12.04,7.71h14.9c8.03,0,12.04-2.54,12.04-7.6v-11.86h-6.37v11.86Z"/><path class="cls-2" d="M324.66,113.68c0,2.2-1.41,3.3-4.22,3.3h-22.29c-2.81,0-4.22-1.1-4.22-3.3v-18.55c0-2.19,1.41-3.29,4.22-3.29h22.29c2.81,0,4.22,1.1,4.22,3.29v18.55Zm3.97-24.71c-.85-.76-1.95-1.35-3.28-1.77-1.35-.42-2.97-.63-4.9-.63h-22.29c-1.92,0-3.55,.21-4.89,.63-1.34,.43-2.43,1.02-3.28,1.77-.85,.76-1.46,1.67-1.85,2.72-.38,1.04-.57,2.21-.57,3.5v18.45c0,1.29,.19,2.46,.57,3.5,.39,1.04,1,1.95,1.85,2.71,.85,.76,1.94,1.35,3.28,1.78,1.35,.42,2.98,.63,4.89,.63h22.29c1.93,0,3.55-.21,4.9-.63,1.33-.43,2.43-1.01,3.28-1.78,.84-.76,1.46-1.66,1.84-2.71,.38-1.05,.57-2.22,.57-3.5v-18.45c0-1.28-.19-2.45-.57-3.5-.38-1.04-1-1.95-1.84-2.72"/><path class="cls-2" d="M400.05,113.68c0,2.2-1.41,3.29-4.22,3.29h-20.96c-2.81,0-4.21-1.1-4.21-3.29v-27.12h-6.37v27.06c0,1.29,.18,2.45,.58,3.5,.38,1.04,1,1.95,1.84,2.71,.85,.76,1.95,1.35,3.28,1.78,1.34,.42,2.97,.63,4.89,.63h22.31c1.91,0,3.48-.21,4.67-.63,1.2-.42,2.15-1.02,2.84-1.78,.68-.76,1.15-1.67,1.39-2.71,.24-1.05,.36-2.22,.36-3.5v-27.06h-6.38v27.12Z"/><path class="cls-2" d="M250.45,88.97c-.84-.76-1.95-1.35-3.28-1.77-1.34-.42-2.97-.63-4.9-.63h-28.67v5.27h28.67c2.81,0,4.22,1.1,4.22,3.29v2.63c0,2.2-1.41,3.3-4.22,3.3h-28.67v21.18h6.38v-15.91h17.79l7.91,15.91h6.81l-7.96-16.02c3.01-.3,5.15-1.22,6.42-2.76,1.29-1.54,1.92-3.46,1.92-5.75v-2.53c0-1.28-.19-2.45-.57-3.5-.39-1.04-1-1.95-1.85-2.72"/><path class="cls-2" d="M479.97,91.68c-.38-1.04-1-1.95-1.84-2.71-.85-.76-1.94-1.35-3.29-1.77-1.34-.42-2.97-.63-4.89-.63h-27.67v5.27h27.67c2.81,0,4.22,1.1,4.22,3.29v5.38c0,2.19-1.4,3.29-4.22,3.29h-27.67v18.45h6.37v-13.18h21.29c1.92,0,3.55-.21,4.89-.63,1.35-.42,2.44-1.01,3.29-1.77,.84-.76,1.46-1.67,1.84-2.71,.39-1.05,.57-2.22,.57-3.5v-5.27c0-1.29-.18-2.45-.57-3.5"/></g><g><polygon class="cls-1" points="226.85 148.34 222.38 148.34 222.38 152.95 227.37 152.95 227.37 154.34 220.89 154.34 220.89 141.55 227.11 141.55 227.11 142.93 222.38 142.93 222.38 146.97 226.85 146.97 226.85 148.34"/><path class="cls-1" d="M236.59,148.89c0-.21-.02-.5-.07-.7-.22-1.06-1.04-1.93-2.17-1.93-1.56,0-2.48,1.52-2.48,3.55,0,1.86,.82,3.39,2.44,3.39,1.01,0,1.93-.74,2.21-1.99,.05-.23,.07-.45,.07-.72v-1.59Zm1.5-8.03v11.1c0,.82,.02,1.74,.07,2.37h-1.35l-.07-1.6h-.04c-.46,1.03-1.47,1.8-2.82,1.8-2,0-3.54-1.88-3.54-4.67-.02-3.06,1.69-4.93,3.71-4.93,1.26,0,2.12,.66,2.49,1.4h.04v-5.48h1.5Z"/><path class="cls-1" d="M249.22,151.83c0,.95,.02,1.78,.07,2.5h-1.33l-.08-1.5h-.04c-.39,.74-1.26,1.7-2.73,1.7-1.3,0-2.85-.79-2.85-4.02v-5.37h1.5v5.08c0,1.75,.48,2.92,1.85,2.92,1.01,0,1.71-.78,1.98-1.52,.08-.25,.14-.55,.14-.85v-5.63h1.5v6.68Z"/><path class="cls-1" d="M259.32,153.99c-.39,.23-1.27,.53-2.38,.53-2.49,0-4.12-1.88-4.12-4.69s1.74-4.87,4.44-4.87c.89,0,1.67,.25,2.09,.47l-.34,1.29c-.36-.23-.92-.43-1.74-.43-1.9,0-2.92,1.55-2.92,3.47,0,2.12,1.23,3.43,2.87,3.43,.85,0,1.42-.25,1.85-.45l.26,1.25Z"/><path class="cls-1" d="M267.15,149.65c-1.64-.04-3.5,.29-3.5,2.07,0,1.08,.65,1.6,1.42,1.6,1.07,0,1.76-.76,2-1.54,.05-.17,.08-.36,.08-.53v-1.6Zm.22,4.69l-.12-1.16h-.05c-.46,.72-1.35,1.37-2.53,1.37-1.67,0-2.53-1.31-2.53-2.64,0-2.22,1.78-3.44,4.97-3.42v-.19c0-.76-.19-2.12-1.88-2.12-.77,0-1.57,.27-2.16,.68l-.34-1.1c.68-.49,1.67-.81,2.72-.81,2.53,0,3.15,1.91,3.15,3.75v3.43c0,.8,.03,1.58,.13,2.2h-1.37Z"/><path class="cls-1" d="M274.55,142.52v2.64h2.15v1.27h-2.15v4.95c0,1.14,.29,1.79,1.13,1.79,.39,0,.68-.06,.87-.12l.07,1.25c-.29,.13-.75,.23-1.33,.23-.7,0-1.27-.25-1.62-.7-.43-.49-.58-1.31-.58-2.39v-5.01h-1.28v-1.27h1.28v-2.2l1.47-.43Z"/><path class="cls-1" d="M280.1,145.15h1.5v9.18h-1.5v-9.18Zm1.67-2.58c.02,.57-.36,1.03-.96,1.03-.53,0-.91-.46-.91-1.03s.39-1.04,.94-1.04,.92,.46,.92,1.04"/><path class="cls-1" d="M286.74,149.76c0,2.01,1.04,3.53,2.51,3.53s2.51-1.5,2.51-3.57c0-1.56-.7-3.53-2.48-3.53s-2.55,1.82-2.55,3.57m6.56-.09c0,3.4-2.12,4.88-4.12,4.88-2.24,0-3.96-1.82-3.96-4.73,0-3.07,1.81-4.87,4.1-4.87s3.98,1.92,3.98,4.72"/><path class="cls-1" d="M296.9,147.64c0-.95-.02-1.73-.07-2.49h1.33l.09,1.52h.03c.41-.87,1.37-1.73,2.73-1.73,1.14,0,2.92,.76,2.92,3.91v5.48h-1.5v-5.29c0-1.48-.49-2.71-1.91-2.71-.99,0-1.76,.78-2.02,1.71-.07,.21-.1,.49-.1,.78v5.52h-1.5v-6.69Z"/><polygon class="cls-1" points="319.45 148.34 314.96 148.34 314.96 152.95 319.96 152.95 319.96 154.34 313.48 154.34 313.48 141.55 319.7 141.55 319.7 142.93 314.96 142.93 314.96 146.97 319.45 146.97 319.45 148.34"/><path class="cls-1" d="M323.55,147.64c0-.95-.02-1.73-.07-2.49h1.32l.07,1.48h.05c.46-.87,1.23-1.69,2.6-1.69,1.13,0,1.98,.76,2.34,1.84h.03c.25-.51,.58-.91,.92-1.2,.49-.42,1.04-.64,1.83-.64,1.09,0,2.72,.8,2.72,3.99v5.4h-1.47v-5.2c0-1.76-.58-2.83-1.79-2.83-.86,0-1.52,.7-1.78,1.52-.07,.23-.12,.53-.12,.83v5.67h-1.47v-5.5c0-1.46-.58-2.52-1.73-2.52-.94,0-1.62,.83-1.86,1.67-.08,.25-.12,.53-.12,.82v5.54h-1.47v-6.69Z"/><path class="cls-1" d="M340.99,150.6c0,.24,.03,.47,.07,.68,.27,1.16,1.18,1.95,2.25,1.95,1.59,0,2.51-1.44,2.51-3.55,0-1.84-.87-3.41-2.46-3.41-1.02,0-1.98,.82-2.27,2.07-.05,.21-.1,.45-.1,.68v1.58Zm-1.48-2.45c0-1.18-.03-2.12-.07-3h1.35l.07,1.57h.04c.61-1.12,1.59-1.78,2.94-1.78,2,0,3.5,1.88,3.5,4.67,0,3.3-1.81,4.93-3.76,4.93-1.1,0-2.05-.53-2.55-1.44h-.03v4.99h-1.48v-9.94Z"/><path class="cls-1" d="M351.87,149.76c0,2.01,1.04,3.53,2.51,3.53s2.51-1.5,2.51-3.57c0-1.56-.7-3.53-2.48-3.53s-2.54,1.82-2.54,3.57m6.56-.09c0,3.4-2.12,4.88-4.12,4.88-2.24,0-3.96-1.82-3.96-4.73,0-3.07,1.81-4.87,4.1-4.87s3.98,1.92,3.98,4.72"/><path class="cls-1" d="M362.63,145.15l1.09,4.67c.24,1.02,.46,1.98,.61,2.92h.05c.19-.93,.46-1.92,.73-2.9l1.35-4.68h1.26l1.28,4.59c.31,1.1,.54,2.07,.73,3h.05c.14-.93,.36-1.9,.63-2.98l1.18-4.61h1.49l-2.67,9.18h-1.36l-1.27-4.38c-.29-1.02-.53-1.94-.74-3.02h-.03c-.2,1.1-.46,2.05-.75,3.04l-1.33,4.37h-1.36l-2.5-9.18h1.54Z"/><path class="cls-1" d="M381.56,148.85c.02-1.06-.39-2.72-2.08-2.72-1.52,0-2.19,1.56-2.3,2.72h4.39Zm-4.41,1.19c.03,2.26,1.33,3.18,2.84,3.18,1.08,0,1.73-.21,2.29-.47l.26,1.2c-.53,.26-1.44,.57-2.75,.57-2.55,0-4.06-1.86-4.06-4.63s1.47-4.95,3.88-4.95c2.7,0,3.41,2.64,3.41,4.33,0,.34-.03,.61-.05,.78h-5.81Z"/><path class="cls-1" d="M386.59,148.02c0-1.08-.01-2.01-.07-2.86h1.32l.05,1.8h.07c.37-1.24,1.28-2.01,2.29-2.01,.17,0,.29,.02,.43,.06v1.57c-.16-.04-.31-.05-.51-.05-1.06,0-1.81,.89-2.02,2.14-.04,.23-.07,.5-.07,.78v4.9h-1.49v-6.32Z"/><path class="cls-1" d="M393.68,152.63c.45,.32,1.23,.67,1.98,.67,1.09,0,1.61-.61,1.61-1.37,0-.8-.43-1.23-1.54-1.69-1.49-.59-2.18-1.5-2.18-2.59,0-1.48,1.07-2.7,2.85-2.7,.84,0,1.58,.26,2.04,.57l-.38,1.21c-.32-.23-.92-.53-1.69-.53-.89,0-1.38,.57-1.38,1.25,0,.76,.5,1.1,1.57,1.55,1.43,.61,2.17,1.4,2.17,2.77,0,1.61-1.13,2.75-3.09,2.75-.9,0-1.74-.25-2.33-.62l.38-1.27Z"/></g></svg>