<svg width="271" height="274" viewBox="0 0 271 274" fill="none" xmlns="http://www.w3.org/2000/svg">
<g filter="url(#filter0_dddddd_15_2257)">
<path d="M206.173 57.5479C208.031 63.267 204.901 69.4105 199.182 71.2687L126.69 94.8227C120.971 96.6809 114.827 93.5507 112.969 87.8316L97.8273 41.2298C95.9691 35.5108 99.0993 29.3673 104.818 27.509L177.31 3.95507C183.029 2.09683 189.173 5.22709 191.031 10.9462L206.173 57.5479Z" fill="#CCD6DD"/>
<path d="M136.03 53.5358L116.258 92.3417C116.212 92.4369 116.215 92.5359 116.179 92.6277C117.539 93.8175 119.164 94.6433 120.927 95.0467C120.982 94.9627 121.062 94.9082 121.109 94.8156L140.883 56.0063C141.564 54.666 141.033 53.0297 139.694 52.3455C138.35 51.663 136.714 52.1946 136.03 53.5358ZM206.395 63.3148C206.317 63.26 206.257 63.1795 206.164 63.1323L167.36 43.3563C166.016 42.6738 164.38 43.2054 163.696 44.5466C163.013 45.8878 163.545 47.5241 164.886 48.2074L203.693 67.9826C203.782 68.028 203.884 68.0262 203.976 68.0622C205.168 66.7016 205.994 65.0766 206.395 63.3148Z" fill="#99AAB5"/>
<path d="M177.31 3.95507L104.818 27.509C99.0993 29.3673 95.9691 35.5108 97.8273 41.2298L98.6938 43.8965L148.501 69.2053C154.997 72.513 163.007 69.9103 166.323 63.4144L191.88 13.5585L191.031 10.9462C189.173 5.22709 183.029 2.09683 177.31 3.95507Z" fill="#99AAB5"/>
<path d="M177.31 3.95504L104.819 27.509C100.707 28.8449 97.9693 32.4079 97.4249 36.4231L148.076 62.2333C153.434 64.9634 159.995 62.8317 162.722 57.4746L188.531 6.82083C185.731 3.89242 181.424 2.61836 177.31 3.95504Z" fill="#E1E8ED"/>
</g>
<defs>
<filter id="filter0_dddddd_15_2257" x="0.751657" y="2.09746" width="269.417" height="271.884" filterUnits="userSpaceOnUse" color-interpolation-filters="sRGB">
<feFlood flood-opacity="0" result="BackgroundImageFix"/>
<feColorMatrix in="SourceAlpha" type="matrix" values="0 0 0 0 0 0 0 0 0 0 0 0 0 0 0 0 0 0 127 0" result="hardAlpha"/>
<feOffset dx="-0.306293" dy="1.82635"/>
<feGaussianBlur stdDeviation="1.57407"/>
<feColorMatrix type="matrix" values="0 0 0 0 0 0 0 0 0 0 0 0 0 0 0 0 0 0 0.0144444 0"/>
<feBlend mode="normal" in2="BackgroundImageFix" result="effect1_dropShadow_15_2257"/>
<feColorMatrix in="SourceAlpha" type="matrix" values="0 0 0 0 0 0 0 0 0 0 0 0 0 0 0 0 0 0 127 0" result="hardAlpha"/>
<feOffset dx="-1.34769" dy="8.03592"/>
<feGaussianBlur stdDeviation="3.25926"/>
<feColorMatrix type="matrix" values="0 0 0 0 0 0 0 0 0 0 0 0 0 0 0 0 0 0 0.0235556 0"/>
<feBlend mode="normal" in2="effect1_dropShadow_15_2257" result="effect2_dropShadow_15_2257"/>
<feColorMatrix in="SourceAlpha" type="matrix" values="0 0 0 0 0 0 0 0 0 0 0 0 0 0 0 0 0 0 127 0" result="hardAlpha"/>
<feOffset dx="-3.30797" dy="19.7245"/>
<feGaussianBlur stdDeviation="6.5"/>
<feColorMatrix type="matrix" values="0 0 0 0 0 0 0 0 0 0 0 0 0 0 0 0 0 0 0.03 0"/>
<feBlend mode="normal" in2="effect2_dropShadow_15_2257" result="effect3_dropShadow_15_2257"/>
<feColorMatrix in="SourceAlpha" type="matrix" values="0 0 0 0 0 0 0 0 0 0 0 0 0 0 0 0 0 0 127 0" result="hardAlpha"/>
<feOffset dx="-6.3709" dy="37.988"/>
<feGaussianBlur stdDeviation="12.7407"/>
<feColorMatrix type="matrix" values="0 0 0 0 0 0 0 0 0 0 0 0 0 0 0 0 0 0 0.0364444 0"/>
<feBlend mode="normal" in2="effect3_dropShadow_15_2257" result="effect4_dropShadow_15_2257"/>
<feColorMatrix in="SourceAlpha" type="matrix" values="0 0 0 0 0 0 0 0 0 0 0 0 0 0 0 0 0 0 127 0" result="hardAlpha"/>
<feOffset dx="-10.7203" dy="63.9221"/>
<feGaussianBlur stdDeviation="23.4259"/>
<feColorMatrix type="matrix" values="0 0 0 0 0 0 0 0 0 0 0 0 0 0 0 0 0 0 0.0455556 0"/>
<feBlend mode="normal" in2="effect4_dropShadow_15_2257" result="effect5_dropShadow_15_2257"/>
<feColorMatrix in="SourceAlpha" type="matrix" values="0 0 0 0 0 0 0 0 0 0 0 0 0 0 0 0 0 0 127 0" result="hardAlpha"/>
<feOffset dx="-16.5398" dy="98.6227"/>
<feGaussianBlur stdDeviation="40"/>
<feColorMatrix type="matrix" values="0 0 0 0 0 0 0 0 0 0 0 0 0 0 0 0 0 0 0.06 0"/>
<feBlend mode="normal" in2="effect5_dropShadow_15_2257" result="effect6_dropShadow_15_2257"/>
<feBlend mode="normal" in="SourceGraphic" in2="effect6_dropShadow_15_2257" result="shape"/>
</filter>
</defs>
</svg>
