<svg width="184" height="199" viewBox="0 0 184 199" fill="none" xmlns="http://www.w3.org/2000/svg">
<path d="M92 175C133.421 175 167 141.421 167 100C167 58.5786 133.421 25 92 25C50.5786 25 17 58.5786 17 100C17 141.421 50.5786 175 92 175Z" fill="url(#paint0_linear_214_138)"/>
<path d="M122.722 59.6835L86.8138 53.7835C84.1802 53.3508 81.6953 55.1408 81.2638 57.7815L68.8436 133.782C68.412 136.423 70.1972 138.914 72.8308 139.347L108.739 145.247C111.373 145.68 113.858 143.89 114.289 141.249L126.709 65.2485C127.141 62.6078 125.356 60.1162 122.722 59.6835Z" fill="#0E84E5"/>
<path d="M121.541 61.8254L87.2509 56.1913C85.4951 55.9029 83.8385 57.0962 83.5508 58.8567L71.3533 133.495C71.0656 135.256 72.2557 136.917 74.0114 137.205L108.302 142.839C110.057 143.128 111.714 141.934 112.002 140.174L124.199 65.5355C124.487 63.775 123.297 62.1139 121.541 61.8254Z" fill="#699CFF"/>
<path d="M53.8044 117.369C53.6641 117.858 53.6715 118.378 53.8256 118.862C53.9797 119.347 54.2737 119.774 54.6703 120.092C55.0669 120.409 55.5484 120.601 56.0538 120.643C56.5593 120.686 57.066 120.577 57.5099 120.331C57.9538 120.085 58.3149 119.713 58.5477 119.261C58.7804 118.809 58.8743 118.298 58.8174 117.792C58.7606 117.287 58.5555 116.81 58.2282 116.421C57.9009 116.033 57.4661 115.75 56.9786 115.61C56.325 115.421 55.6234 115.5 55.0281 115.83C54.4329 116.16 53.9927 116.714 53.8044 117.369V117.369Z" fill="#699CFF"/>
<path d="M59.5424 112.005C59.536 112.112 59.5173 112.217 59.4868 112.319C59.4322 112.509 59.3406 112.687 59.2173 112.842C59.094 112.996 58.9414 113.125 58.7682 113.22C58.5962 113.316 58.4067 113.377 58.2109 113.399C58.0151 113.421 57.8169 113.403 57.628 113.348C57.0083 113.168 56.3594 113.113 55.7185 113.186C55.0776 113.258 54.4572 113.457 53.8929 113.77C53.3286 114.083 52.8314 114.505 52.4298 115.011C52.0282 115.517 51.7301 116.098 51.5524 116.719C51.4977 116.909 51.4063 117.086 51.2832 117.241C51.1602 117.395 51.0081 117.524 50.8355 117.62C50.4869 117.812 50.0761 117.859 49.6936 117.748C49.3111 117.637 48.9881 117.378 48.7957 117.029C48.6034 116.679 48.5574 116.268 48.6678 115.884C48.9523 114.882 49.4324 113.946 50.0805 113.132C50.7285 112.317 51.5315 111.64 52.4429 111.139C53.1259 110.759 53.8606 110.481 54.6237 110.314L59.5424 112.005Z" fill="#699CFF"/>
<path d="M48.1466 108.092L51.7253 109.322C51.6487 109.356 51.5741 109.394 51.5019 109.437C50.3674 110.061 49.3677 110.905 48.5607 111.919C47.7537 112.934 47.1556 114.099 46.8009 115.346C46.7474 115.537 46.6569 115.716 46.5344 115.871C46.4119 116.027 46.26 116.157 46.0873 116.253C45.9146 116.35 45.7246 116.411 45.5282 116.434C45.3317 116.456 45.1328 116.44 44.9428 116.385C44.7528 116.33 44.5754 116.238 44.421 116.114C44.2665 115.991 44.138 115.838 44.0429 115.664C43.9477 115.49 43.8877 115.299 43.8664 115.102C43.8451 114.905 43.8629 114.706 43.9187 114.515C44.6342 111.989 46.1108 109.745 48.1466 108.092V108.092Z" fill="#699CFF"/>
<path d="M60.8517 107.557C60.7408 107.94 60.4834 108.263 60.1356 108.457C59.7879 108.65 59.3779 108.698 58.9952 108.59C58.301 108.387 57.5868 108.262 56.8653 108.217L51.1482 106.257C53.8851 105.054 56.9568 104.854 59.8257 105.693C60.2079 105.804 60.5304 106.063 60.7227 106.412C60.9151 106.762 60.9614 107.173 60.8517 107.557V107.557Z" fill="#699CFF"/>
<path d="M42.8839 106.289L46.0196 107.362C44.1311 109.171 42.7582 111.453 42.0425 113.972C41.988 114.162 41.8964 114.34 41.7731 114.494C41.6498 114.649 41.4972 114.778 41.3241 114.873C41.1527 114.97 40.9638 115.031 40.7683 115.054C40.5729 115.076 40.375 115.06 40.1862 115.004C39.9966 114.95 39.8195 114.859 39.6651 114.736C39.5107 114.613 39.382 114.461 39.2864 114.288C39.1907 114.115 39.13 113.925 39.1078 113.729C39.0855 113.532 39.102 113.333 39.1565 113.143C39.8761 110.61 41.1494 108.268 42.8839 106.289V106.289Z" fill="#699CFF"/>
<path d="M62.2229 102.786C62.1118 103.169 61.8538 103.492 61.5054 103.685C61.157 103.878 60.7466 103.924 60.3641 103.814C58.4963 103.27 56.5395 103.103 54.6068 103.322C52.6741 103.541 50.8038 104.142 49.1043 105.09C48.9328 105.187 48.766 105.281 48.6058 105.388L45.0896 104.179C47.3177 102.381 49.944 101.147 52.7472 100.58C55.5504 100.014 58.4484 100.131 61.1971 100.922C61.5792 101.033 61.9018 101.292 62.0941 101.641C62.2863 101.991 62.3327 102.402 62.2229 102.786V102.786Z" fill="#699CFF"/>
<path d="M39.4376 106.496L39.4376 106.496C39.1959 107.204 39.5724 107.975 40.2786 108.217L59.6697 114.871C60.3759 115.113 61.1442 114.736 61.3859 114.028L61.3859 114.028C61.6276 113.32 61.2511 112.549 60.5449 112.307L41.1538 105.653C40.4477 105.41 39.6793 105.788 39.4376 106.496Z" fill="#699CFF"/>
<path d="M141.976 53.7526C139.368 52.6599 137.524 53.7081 137.088 54.7544C136.773 55.5101 137.266 56.1259 137.787 56.3445C138.831 56.7816 139.027 55.1116 140.998 55.9372C141.964 56.3419 142.559 57.092 142.188 57.9833C141.752 59.0296 140.42 59.177 139.556 59.4524C138.794 59.7021 137.729 60.189 137.034 61.8553C136.615 62.8628 136.764 63.2667 137.556 63.5986C138.503 63.9952 138.874 63.6499 139.027 63.2817C139.447 62.2741 139.708 61.7009 141.118 61.313C141.809 61.1247 144.001 60.495 144.76 58.6738C145.518 56.8525 144.449 54.7887 141.976 53.7526Z" fill="#0E84E5"/>
<path d="M137.018 64.9436C136.625 64.784 136.184 64.7864 135.792 64.9504C135.401 65.1143 135.089 65.4265 134.925 65.8193C134.762 66.2121 134.759 66.6537 134.918 67.0484C135.077 67.4431 135.385 67.759 135.775 67.9275C136.169 68.0901 136.611 68.0897 137.005 67.9263C137.399 67.7629 137.712 67.4498 137.876 67.0555C138.041 66.6613 138.043 66.2178 137.882 65.8221C137.721 65.4263 137.41 65.1105 137.018 64.9436V64.9436Z" fill="#0E84E5"/>
<path d="M92.9155 88.4902C93.1509 87.0372 92.7326 85.7601 91.9812 85.6377C91.2299 85.5154 90.4299 86.594 90.1945 88.047C89.9591 89.4999 90.3774 90.777 91.1288 90.8994C91.8802 91.0218 92.6801 89.9431 92.9155 88.4902Z" fill="white"/>
<path d="M108.584 91.0689C108.821 89.6015 108.405 88.3128 107.654 88.1904C106.902 88.068 106.1 89.1583 105.863 90.6257C105.625 92.0931 106.041 93.3819 106.793 93.5043C107.544 93.6267 108.346 92.5363 108.584 91.0689Z" fill="white"/>
<path d="M102.188 103.718C102.133 103.719 102.079 103.707 102.029 103.686C101.979 103.664 101.934 103.633 101.896 103.593L101.329 102.995C100.42 102.038 99.2227 101.407 97.9211 101.199C96.6194 100.991 95.2857 101.217 94.125 101.844L93.401 102.236C93.3544 102.261 93.3034 102.277 93.2508 102.282C93.1982 102.287 93.145 102.282 93.0943 102.267C93.0437 102.252 92.9965 102.227 92.9555 102.194C92.9144 102.16 92.8804 102.119 92.8553 102.072C92.8301 102.025 92.8144 101.974 92.809 101.922C92.8036 101.869 92.8086 101.816 92.8237 101.765C92.8389 101.714 92.8638 101.667 92.8972 101.625C92.9306 101.584 92.9717 101.55 93.0183 101.525L93.7423 101.133C95.0587 100.423 96.5714 100.166 98.0477 100.401C99.524 100.637 100.882 101.353 101.913 102.438L102.48 103.037C102.534 103.094 102.57 103.166 102.584 103.244C102.598 103.321 102.589 103.401 102.558 103.474C102.527 103.546 102.475 103.608 102.409 103.652C102.344 103.695 102.267 103.718 102.188 103.718V103.718Z" fill="white"/>
<defs>
<linearGradient id="paint0_linear_214_138" x1="92" y1="25" x2="92" y2="175" gradientUnits="userSpaceOnUse">
<stop stop-color="#E3ECFA"/>
<stop offset="1" stop-color="#DAE7FF"/>
</linearGradient>
</defs>
</svg>
