<svg width="184" height="199" viewBox="0 0 184 199" fill="none" xmlns="http://www.w3.org/2000/svg">
<path d="M92 175C133.421 175 167 141.421 167 100C167 58.5786 133.421 25 92 25C50.5786 25 17 58.5786 17 100C17 141.421 50.5786 175 92 175Z" fill="url(#paint0_linear_214_138)"/>
<path d="M133.857 126.327L66.9173 148.659C65.8082 149.029 64.6094 148.905 63.5845 148.314C62.5597 147.723 61.7928 146.714 61.4525 145.509L53.6245 117.809L47.1258 94.8051L47 94.3652L47.8916 93.2477L76.9825 56.7986C77.1157 56.6299 77.2903 56.5057 77.4859 56.4404C77.6815 56.3752 77.8901 56.3716 78.0875 56.43L121.007 68.8712L122.304 69.2456L122.703 70.6485L136.756 120.383C137.096 121.589 136.981 122.892 136.438 124.007C135.894 125.121 134.966 125.955 133.857 126.327Z" fill="#418DF9"/>
<path d="M122.703 70.648L97.332 103.127V101.344L121.007 68.8708L122.304 69.2452L122.703 70.648Z" fill="#208AF2"/>
<path d="M133.935 126.299C133.885 126.317 133.832 126.317 133.782 126.299L92.8094 109.768C92.7764 109.754 92.7467 109.733 92.7229 109.704C92.699 109.676 92.6816 109.642 92.672 109.605C92.6624 109.568 92.661 109.529 92.6678 109.491C92.6745 109.453 92.6894 109.418 92.711 109.388L99.5598 100.103L122.043 69.6039C122.067 69.5692 122.1 69.5426 122.138 69.527C122.175 69.5113 122.216 69.5073 122.256 69.5153C122.295 69.5233 122.332 69.543 122.362 69.5722C122.392 69.6015 122.414 69.6392 122.426 69.6811L136.659 120.063L136.752 120.385C137.091 121.575 136.985 122.862 136.458 123.968C135.931 125.075 135.025 125.912 133.935 126.299V126.299Z" fill="#A2BDFF"/>
<path d="M90.1936 107.9L89.8217 108.744L47.4048 94.5021C47.3661 94.4891 47.3247 94.4878 47.2853 94.4984C47.2459 94.509 47.21 94.5311 47.1812 94.5622C47.1525 94.5934 47.1322 94.6325 47.1224 94.6753C47.1127 94.7181 47.1139 94.763 47.1258 94.8052L47 94.3653L47.8916 93.2478L90.1936 107.9Z" fill="#208AF2"/>
<path d="M92.3432 109.921L66.9666 148.588C66.9375 148.636 66.8924 148.67 66.8408 148.683C65.739 149.027 64.557 148.888 63.5492 148.294C62.5413 147.7 61.7884 146.7 61.4526 145.509L53.6246 117.809L47.1259 94.8053C47.1139 94.7631 47.1128 94.7182 47.1225 94.6754C47.1323 94.6326 47.1526 94.5935 47.1813 94.5623C47.21 94.5312 47.246 94.5091 47.2854 94.4985C47.3248 94.4879 47.3661 94.4892 47.4049 94.5022L89.8214 108.744L92.228 109.553C92.2613 109.564 92.2917 109.584 92.3166 109.61C92.3416 109.637 92.3605 109.669 92.3717 109.705C92.3829 109.741 92.3862 109.779 92.3812 109.817C92.3763 109.855 92.3633 109.89 92.3432 109.921V109.921Z" fill="#A2BDFF"/>
<path d="M133.855 126.328L66.92 148.66C65.9066 148.994 64.8159 148.919 63.8494 148.448C62.883 147.977 62.1059 147.142 61.6617 146.098C61.5868 145.919 61.5535 145.723 61.5649 145.528C61.5763 145.332 61.632 145.142 61.727 144.975L88.4034 97.7575C88.5427 97.5109 88.7601 97.3279 89.0147 97.243C89.2693 97.1581 89.5436 97.177 89.7863 97.2961L136.251 120.111C136.416 120.192 136.56 120.315 136.671 120.47C136.781 120.625 136.855 120.807 136.885 121.001C137.057 122.136 136.845 123.301 136.288 124.28C135.731 125.26 134.867 125.987 133.855 126.328V126.328Z" fill="#699CFF"/>
<path d="M120.643 52.1972C120.603 52.1971 120.564 52.1861 120.529 52.1651C120.495 52.1442 120.466 52.1139 120.445 52.0773C120.424 52.0407 120.412 51.9988 120.41 51.9558C120.408 51.9127 120.416 51.8699 120.434 51.8313C120.634 51.3927 120.74 51.1521 120.741 51.1515C120.753 51.1204 120.772 51.0923 120.794 51.0689C120.817 51.0456 120.844 51.0275 120.874 51.0157C120.903 51.0039 120.934 50.9987 120.965 51.0003C120.997 51.0019 121.027 51.0104 121.056 51.0252C121.084 51.04 121.109 51.0608 121.13 51.0864C121.15 51.112 121.166 51.1419 121.176 51.1742C121.186 51.2066 121.189 51.2407 121.187 51.2747C121.184 51.3086 121.175 51.3416 121.161 51.3717C121.161 51.3717 121.053 51.6138 120.851 52.0562C120.832 52.0985 120.802 52.1341 120.766 52.159C120.729 52.1839 120.686 52.1971 120.643 52.1972Z" fill="white"/>
<path d="M97.0939 88.296C97.0495 88.2959 97.006 88.2822 96.9686 88.2562C96.9312 88.2303 96.9014 88.1933 96.8826 88.1496C96.8639 88.1059 96.857 88.0573 96.8628 88.0095C96.8686 87.9617 96.8868 87.9166 96.9154 87.8797C97.2167 87.4894 97.503 87.1024 97.7664 86.729C97.8041 86.6757 97.8597 86.6408 97.921 86.632C97.9823 86.6232 98.0443 86.6413 98.0934 86.6822C98.1425 86.7231 98.1746 86.7835 98.1827 86.8501C98.1908 86.9168 98.1742 86.9841 98.1366 87.0375C97.869 87.4166 97.5784 87.8095 97.2727 88.2055C97.2508 88.2338 97.2234 88.2566 97.1925 88.2723C97.1616 88.2879 97.128 88.296 97.0939 88.296V88.296ZM98.7543 85.9324C98.7119 85.9323 98.6703 85.9197 98.634 85.896C98.5977 85.8722 98.5681 85.8381 98.5483 85.7974C98.5285 85.7567 98.5193 85.7109 98.5216 85.6649C98.524 85.6189 98.5378 85.5745 98.5616 85.5364C98.8284 85.1101 99.0698 84.692 99.2791 84.2937C99.2943 84.2648 99.3146 84.2394 99.3388 84.219C99.363 84.1986 99.3907 84.1836 99.4202 84.1749C99.4498 84.1661 99.4806 84.1638 99.511 84.168C99.5414 84.1721 99.5707 84.1828 99.5973 84.1993C99.6239 84.2158 99.6473 84.2378 99.666 84.2642C99.6848 84.2905 99.6986 84.3205 99.7066 84.3526C99.7147 84.3847 99.7169 84.4182 99.713 84.4513C99.7091 84.4843 99.6994 84.5161 99.6842 84.545C99.4688 84.9548 99.2209 85.3842 98.9473 85.8215C98.9259 85.8556 98.8971 85.8836 98.8635 85.9029C98.8298 85.9223 98.7924 85.9324 98.7544 85.9324H98.7543ZM98.7063 83.517H98.7025C98.2311 83.5194 97.7651 83.4087 97.3376 83.1927C97.3099 83.1786 97.2849 83.1587 97.2643 83.1342C97.2436 83.1096 97.2276 83.0809 97.2171 83.0496C97.2066 83.0184 97.2019 82.9852 97.2033 82.9519C97.2046 82.9187 97.212 82.886 97.2249 82.8559C97.2379 82.8257 97.2562 82.7986 97.2788 82.7762C97.3014 82.7537 97.3278 82.7363 97.3566 82.7249C97.3854 82.7135 97.4159 82.7084 97.4465 82.7099C97.4771 82.7114 97.5072 82.7194 97.5349 82.7334C97.9007 82.9178 98.2995 83.0122 98.7028 83.0097C98.7214 83.0097 98.7413 83.0097 98.7604 83.0097H98.7649C98.7955 83.0094 98.8259 83.0157 98.8543 83.0281C98.8827 83.0406 98.9086 83.059 98.9304 83.0823C98.9523 83.1056 98.9697 83.1334 98.9817 83.164C98.9936 83.1946 99 83.2275 99.0002 83.2608C99.0005 83.2941 98.9948 83.3271 98.9833 83.358C98.9718 83.3888 98.9549 83.4169 98.9335 83.4407C98.912 83.4644 98.8864 83.4833 98.8583 83.4964C98.8301 83.5094 98.7998 83.5162 98.7692 83.5165C98.7483 83.5169 98.7274 83.517 98.7064 83.517H98.7063ZM100.095 83.3447C100.042 83.3286 99.9928 83.2972 99.9541 83.2538C99.9154 83.2104 99.888 83.1565 99.8748 83.0978C99.8616 83.039 99.863 82.9775 99.879 82.9196C99.8949 82.8617 99.9248 82.8094 99.9655 82.7682C100.103 82.3981 100.212 82.0163 100.292 81.6268C100.298 81.594 100.31 81.5628 100.328 81.5351C100.345 81.5073 100.367 81.4836 100.393 81.4653C100.419 81.447 100.448 81.4344 100.478 81.4283C100.508 81.4221 100.539 81.4226 100.569 81.4297C100.6 81.4367 100.628 81.4502 100.654 81.4693C100.679 81.4884 100.7 81.5128 100.717 81.541C100.734 81.5693 100.745 81.6008 100.75 81.6338C100.755 81.6668 100.755 81.7006 100.748 81.7333C100.696 81.9925 100.63 82.2483 100.552 82.4996C100.765 82.3909 100.983 82.265 101.204 82.1228C101.257 82.0913 101.319 82.0833 101.378 82.1007C101.436 82.1181 101.486 82.1594 101.517 82.216C101.547 82.2725 101.557 82.3399 101.543 82.4039C101.529 82.4678 101.492 82.5233 101.441 82.5587C101.084 82.7912 100.71 82.9916 100.322 83.1577L100.309 83.1902C100.292 83.2358 100.262 83.2748 100.224 83.3022C100.186 83.3296 100.141 83.3442 100.095 83.3443L100.095 83.3447ZM96.3154 82.3717C96.2588 82.3718 96.2041 82.3494 96.1617 82.3088C95.7895 81.9705 95.4754 81.5632 95.2339 81.1058C95.218 81.0764 95.2077 81.0438 95.2036 81.01C95.1995 80.9762 95.2018 80.9418 95.2103 80.909C95.2187 80.8762 95.2332 80.8455 95.2528 80.8189C95.2724 80.7923 95.2967 80.7702 95.3244 80.7541C95.352 80.7379 95.3824 80.728 95.4136 80.7249C95.4449 80.7218 95.4764 80.7255 95.5062 80.736C95.5361 80.7464 95.5637 80.7633 95.5875 80.7856C95.6112 80.8079 95.6305 80.8352 95.6443 80.8659C95.8596 81.2698 96.1387 81.6293 96.4689 81.9278C96.5046 81.9618 96.5298 82.0068 96.5413 82.0568C96.5528 82.1068 96.55 82.1594 96.5333 82.2076C96.5166 82.2558 96.4867 82.2974 96.4477 82.3267C96.4087 82.356 96.3624 82.3717 96.315 82.3717H96.3154ZM102.454 81.7575C102.405 81.7576 102.358 81.7411 102.318 81.7102C102.278 81.6794 102.249 81.6358 102.233 81.5856C102.217 81.5354 102.216 81.4812 102.231 81.4305C102.245 81.3798 102.273 81.3352 102.312 81.3029C102.647 81.0243 102.995 80.7075 103.349 80.3611C103.371 80.3388 103.398 80.3216 103.427 80.3104C103.456 80.2993 103.486 80.2944 103.517 80.2962C103.547 80.2979 103.577 80.3061 103.605 80.3204C103.633 80.3347 103.657 80.3547 103.678 80.3794C103.698 80.4042 103.714 80.433 103.725 80.4644C103.735 80.4957 103.739 80.529 103.738 80.5622C103.736 80.5954 103.729 80.628 103.715 80.6581C103.702 80.6881 103.684 80.7151 103.661 80.7373C103.299 81.0927 102.94 81.4184 102.596 81.7052C102.555 81.7389 102.505 81.757 102.454 81.7567L102.454 81.7575ZM100.592 80.4562C100.536 80.4561 100.482 80.4342 100.44 80.3943C100.398 80.3545 100.37 80.2995 100.362 80.2393C100.311 79.7946 100.136 79.3778 99.8591 79.0457C99.8173 78.9963 99.7952 78.931 99.7977 78.8641C99.8001 78.7971 99.8269 78.7339 99.8721 78.6883C99.9174 78.6428 99.9774 78.6185 100.039 78.6209C100.101 78.6233 100.159 78.6521 100.201 78.701C100.542 79.1081 100.76 79.6198 100.823 80.1662C100.828 80.1991 100.826 80.2327 100.819 80.2649C100.811 80.2972 100.798 80.3275 100.78 80.3542C100.761 80.3809 100.738 80.4034 100.712 80.4205C100.686 80.4375 100.657 80.4487 100.626 80.4535C100.615 80.4553 100.604 80.4562 100.592 80.4562ZM95.2921 79.8069C95.2545 79.8069 95.2175 79.797 95.1842 79.7782C95.1509 79.7593 95.1223 79.732 95.1008 79.6985C95.0793 79.665 95.0656 79.6264 95.0608 79.5859C95.0559 79.5454 95.0602 79.5043 95.0732 79.466C95.2345 78.9896 95.5862 78.5746 96.0913 78.2665C96.1452 78.2336 96.209 78.2253 96.2686 78.2435C96.3281 78.2616 96.3786 78.3047 96.4089 78.3633C96.4392 78.4219 96.4468 78.4912 96.4301 78.5559C96.4134 78.6207 96.3737 78.6755 96.3198 78.7084C95.913 78.9567 95.6333 79.279 95.511 79.6409C95.4946 79.6896 95.4647 79.7316 95.4256 79.7613C95.3864 79.791 95.3398 79.8069 95.2921 79.8069V79.8069ZM104.494 79.7706C104.448 79.7706 104.403 79.7558 104.365 79.7281C104.326 79.7004 104.297 79.6611 104.279 79.615C104.261 79.5689 104.256 79.5181 104.265 79.4691C104.274 79.42 104.296 79.3749 104.328 79.3393C104.632 79.0048 104.946 78.6422 105.261 78.2629C105.302 78.213 105.36 78.183 105.422 78.1796C105.484 78.1761 105.544 78.1995 105.59 78.2445C105.636 78.2895 105.664 78.3525 105.667 78.4197C105.67 78.4868 105.648 78.5525 105.607 78.6024C105.287 78.9876 104.969 79.3549 104.66 79.6951C104.638 79.719 104.612 79.738 104.584 79.751C104.555 79.764 104.525 79.7706 104.494 79.7706V79.7706ZM98.8617 78.3902C98.841 78.3901 98.8205 78.3871 98.8005 78.3812C98.3863 78.2647 97.9555 78.2349 97.5311 78.2936C97.5007 78.2976 97.4699 78.295 97.4404 78.286C97.4109 78.2771 97.3833 78.2619 97.3592 78.2414C97.3351 78.2208 97.3149 78.1953 97.2999 78.1664C97.2849 78.1374 97.2753 78.1054 97.2716 78.0724C97.2679 78.0394 97.2703 78.0059 97.2785 77.9738C97.2867 77.9418 97.3007 77.9118 97.3196 77.8856C97.3385 77.8594 97.362 77.8375 97.3887 77.8212C97.4153 77.8049 97.4447 77.7944 97.4751 77.7904C97.9592 77.7239 98.4504 77.7583 98.9226 77.8918C98.9773 77.9078 99.0247 77.9448 99.056 77.9959C99.0874 78.0471 99.1006 78.1089 99.0932 78.1698C99.0857 78.2308 99.0581 78.2867 99.0155 78.3272C98.973 78.3676 98.9183 78.3899 98.8617 78.3899V78.3902ZM106.333 77.5621C106.289 77.5621 106.246 77.5483 106.208 77.5223C106.171 77.4964 106.141 77.4593 106.122 77.4156C106.103 77.3719 106.097 77.3232 106.102 77.2754C106.108 77.2276 106.127 77.1826 106.155 77.1457C106.437 76.7808 106.728 76.3946 107.018 75.9971C107.037 75.9704 107.06 75.9482 107.087 75.9315C107.114 75.9149 107.144 75.9042 107.174 75.9002C107.205 75.8961 107.236 75.8987 107.266 75.9078C107.296 75.9169 107.324 75.9323 107.348 75.9532C107.372 75.9741 107.392 76 107.407 76.0294C107.422 76.0588 107.431 76.0912 107.435 76.1245C107.438 76.1579 107.435 76.1917 107.426 76.2239C107.418 76.2561 107.403 76.2861 107.383 76.3121C107.09 76.7134 106.797 77.1036 106.512 77.4718C106.49 77.5001 106.463 77.5229 106.432 77.5385C106.401 77.5541 106.368 77.5622 106.334 77.5621H106.333ZM108.04 75.2298C107.996 75.2297 107.954 75.2165 107.917 75.1917C107.88 75.1669 107.851 75.1314 107.831 75.0892C107.812 75.047 107.804 74.9998 107.808 74.9529C107.812 74.906 107.828 74.8612 107.854 74.8236C108.12 74.4404 108.394 74.0387 108.666 73.6297C108.703 73.5752 108.757 73.5387 108.818 73.5281C108.88 73.5175 108.942 73.5336 108.992 73.5731C109.042 73.6125 109.076 73.6719 109.086 73.7383C109.095 73.8047 109.08 73.8725 109.044 73.927C108.77 74.3388 108.494 74.7432 108.226 75.1291C108.204 75.1603 108.176 75.1857 108.144 75.2031C108.112 75.2206 108.076 75.2297 108.04 75.2298H108.04ZM109.649 72.8174C109.607 72.8173 109.565 72.8046 109.529 72.7806C109.492 72.7565 109.463 72.7221 109.443 72.681C109.423 72.64 109.414 72.5938 109.417 72.5476C109.42 72.5014 109.434 72.4569 109.459 72.4189C109.713 72.0236 109.973 71.611 110.233 71.1937C110.267 71.138 110.321 71.0995 110.382 71.0868C110.442 71.074 110.505 71.088 110.557 71.1256C110.608 71.1632 110.643 71.2214 110.655 71.2874C110.667 71.3534 110.654 71.4218 110.619 71.4775C110.358 71.8969 110.097 72.3114 109.841 72.7092C109.82 72.7426 109.791 72.7699 109.758 72.7887C109.724 72.8075 109.687 72.8173 109.65 72.8173L109.649 72.8174ZM111.185 70.3484C111.143 70.3483 111.102 70.336 111.066 70.3125C111.03 70.2891 111 70.2555 110.98 70.2153C110.96 70.1751 110.95 70.1298 110.952 70.0841C110.954 70.0385 110.967 69.9942 110.99 69.956C111.237 69.5471 111.487 69.1262 111.735 68.7047C111.768 68.6481 111.821 68.6081 111.881 68.5936C111.942 68.5791 112.005 68.5913 112.057 68.6274C112.109 68.6636 112.146 68.7208 112.159 68.7864C112.172 68.852 112.161 68.9207 112.128 68.9774C111.879 69.4005 111.628 69.8233 111.38 70.2342C111.359 70.2693 111.33 70.2981 111.296 70.318C111.262 70.3379 111.224 70.3483 111.185 70.3483L111.185 70.3484ZM112.662 67.8346C112.62 67.8346 112.58 67.8225 112.544 67.7995C112.508 67.7766 112.479 67.7437 112.458 67.7042C112.438 67.6647 112.428 67.62 112.429 67.5749C112.43 67.5297 112.442 67.4857 112.464 67.4473C112.701 67.0349 112.942 66.6087 113.182 66.1803C113.214 66.1229 113.266 66.0817 113.326 66.0658C113.386 66.0499 113.449 66.0606 113.502 66.0956C113.555 66.1305 113.593 66.1869 113.608 66.2522C113.622 66.3175 113.612 66.3865 113.58 66.4439C113.339 66.8736 113.097 67.3014 112.86 67.7151C112.839 67.7515 112.81 67.7815 112.775 67.8023C112.741 67.8231 112.702 67.834 112.662 67.834L112.662 67.8346ZM114.088 65.2889C114.047 65.2888 114.006 65.2769 113.971 65.2544C113.935 65.2318 113.906 65.1995 113.885 65.1606C113.865 65.1216 113.854 65.0776 113.855 65.0328C113.855 64.9881 113.867 64.9443 113.888 64.9058C114.123 64.4759 114.355 64.0487 114.583 63.624C114.598 63.5948 114.619 63.5692 114.643 63.5486C114.668 63.528 114.696 63.5129 114.725 63.5042C114.755 63.4954 114.786 63.4932 114.817 63.4976C114.848 63.5021 114.877 63.513 114.904 63.53C114.93 63.5469 114.954 63.5694 114.972 63.5962C114.991 63.623 115.004 63.6535 115.012 63.686C115.02 63.7185 115.021 63.7524 115.017 63.7856C115.012 63.8188 115.002 63.8507 114.986 63.8795C114.757 64.3052 114.525 64.7337 114.288 65.1651C114.268 65.2028 114.238 65.234 114.203 65.2556C114.168 65.2773 114.129 65.2887 114.088 65.2887L114.088 65.2889ZM115.471 62.715C115.43 62.715 115.39 62.7033 115.354 62.6811C115.319 62.6589 115.29 62.627 115.269 62.5886C115.249 62.5502 115.238 62.5066 115.238 62.4622C115.238 62.4178 115.248 62.3742 115.269 62.3357C115.499 61.8984 115.725 61.4669 115.945 61.0412C115.96 61.012 115.98 60.9864 116.004 60.9657C116.028 60.945 116.056 60.9297 116.085 60.9206C116.115 60.9115 116.146 60.9089 116.176 60.9129C116.207 60.9168 116.236 60.9273 116.263 60.9436C116.29 60.96 116.313 60.9819 116.332 61.0082C116.351 61.0344 116.365 61.0645 116.373 61.0966C116.381 61.1288 116.384 61.1624 116.38 61.1955C116.376 61.2286 116.366 61.2606 116.351 61.2896C116.131 61.7159 115.905 62.1484 115.673 62.587C115.653 62.6257 115.623 62.6578 115.588 62.6801C115.552 62.7024 115.512 62.7141 115.471 62.7141L115.471 62.715ZM116.816 60.117C116.775 60.1169 116.735 60.1054 116.7 60.0835C116.665 60.0616 116.636 60.0301 116.615 59.9922C116.595 59.9542 116.583 59.9111 116.583 59.867C116.582 59.8229 116.592 59.7795 116.612 59.7409C116.839 59.295 117.058 58.8597 117.271 58.4351C117.3 58.3761 117.35 58.3322 117.409 58.3131C117.469 58.2941 117.532 58.3014 117.587 58.3335C117.641 58.3656 117.682 58.4198 117.699 58.4843C117.717 58.5487 117.71 58.6181 117.68 58.6772C117.468 59.1023 117.248 59.5386 117.02 59.9861C117 60.0256 116.97 60.0585 116.935 60.0814C116.899 60.1044 116.858 60.1164 116.816 60.1164L116.816 60.117ZM118.126 57.497C118.086 57.4969 118.046 57.4855 118.011 57.4639C117.976 57.4423 117.947 57.4112 117.927 57.3737C117.906 57.3361 117.894 57.2934 117.894 57.2497C117.893 57.206 117.902 57.1627 117.921 57.1241C118.146 56.666 118.36 56.2273 118.563 55.8079C118.577 55.7778 118.596 55.751 118.62 55.729C118.643 55.7071 118.671 55.6905 118.7 55.6802C118.73 55.6699 118.761 55.6661 118.792 55.669C118.822 55.6719 118.852 55.6815 118.88 55.6972C118.907 55.7128 118.932 55.7343 118.951 55.7603C118.971 55.7863 118.986 55.8163 118.995 55.8485C119.004 55.8808 119.007 55.9147 119.003 55.9482C119 55.9817 118.991 56.0141 118.976 56.0436C118.773 56.4631 118.558 56.9028 118.332 57.3629C118.312 57.4033 118.282 57.437 118.246 57.4605C118.21 57.484 118.169 57.4964 118.127 57.4964L118.126 57.497ZM119.403 54.8561C119.363 54.8561 119.324 54.8449 119.289 54.8235C119.254 54.8022 119.225 54.7715 119.204 54.7344C119.183 54.6972 119.172 54.6549 119.17 54.6115C119.169 54.568 119.178 54.5249 119.196 54.4863C119.428 53.9983 119.637 53.5538 119.821 53.1594C119.835 53.1296 119.854 53.1029 119.877 53.0811C119.9 53.0592 119.927 53.0426 119.957 53.0321C119.986 53.0216 120.017 53.0175 120.047 53.02C120.078 53.0225 120.108 53.0316 120.135 53.0466C120.163 53.0617 120.187 53.0826 120.207 53.108C120.227 53.1333 120.242 53.1628 120.252 53.1945C120.261 53.2263 120.265 53.2598 120.262 53.2931C120.26 53.3264 120.251 53.3588 120.237 53.3885C120.053 53.7838 119.843 54.2298 119.611 54.719C119.591 54.7602 119.561 54.7947 119.525 54.8188C119.488 54.8428 119.446 54.8555 119.404 54.8555L119.403 54.8561Z" fill="white"/>
<path d="M95.7444 89.954C95.6991 89.954 95.6547 89.9396 95.6167 89.9126C95.5787 89.8856 95.5488 89.8471 95.5307 89.802C95.5125 89.7568 95.5069 89.7068 95.5145 89.6582C95.5221 89.6096 95.5426 89.5644 95.5734 89.5283C95.7346 89.3395 95.891 89.1534 96.0428 88.9699C96.0631 88.9445 96.0879 88.9237 96.1156 88.9088C96.1434 88.8939 96.1736 88.8852 96.2045 88.8831C96.2354 88.881 96.2664 88.8856 96.2956 88.8967C96.3249 88.9078 96.3518 88.925 96.3748 88.9475C96.3979 88.97 96.4165 88.9973 96.4298 89.0277C96.443 89.0581 96.4505 89.0911 96.4519 89.1247C96.4533 89.1583 96.4485 89.1919 96.4378 89.2235C96.4271 89.2551 96.4108 89.284 96.3897 89.3086C96.2363 89.4941 96.0782 89.6821 95.9154 89.8728C95.8936 89.8984 95.8672 89.9189 95.8377 89.9329C95.8083 89.9469 95.7765 89.954 95.7444 89.954V89.954Z" fill="white"/>
<path d="M85.9796 73.6444C85.94 73.6444 85.901 73.6334 85.8663 73.6124C85.8317 73.5915 85.8025 73.5612 85.7816 73.5246C85.7607 73.488 85.7487 73.4462 85.7468 73.4032C85.745 73.3601 85.7532 73.3173 85.7708 73.2786C85.9607 72.8612 86.0633 72.6054 86.0643 72.6029C86.0892 72.5415 86.1353 72.4934 86.1928 72.469C86.2502 72.4445 86.3142 72.4458 86.3707 72.4725C86.4273 72.4992 86.4718 72.5491 86.4945 72.6114C86.5173 72.6737 86.5164 72.7432 86.4921 72.8048C86.4878 72.8155 86.3845 73.0734 86.1888 73.5032C86.1695 73.5456 86.1397 73.5813 86.1028 73.6063C86.0658 73.6312 86.0232 73.6444 85.9796 73.6444Z" fill="white"/>
<path d="M74.6933 85.8086C74.648 85.8086 74.6037 85.7942 74.5658 85.7673C74.5279 85.7404 74.498 85.7021 74.4798 85.657C74.4616 85.612 74.4559 85.5621 74.4633 85.5136C74.4708 85.465 74.491 85.4199 74.5217 85.3837C74.8542 84.9904 75.1704 84.6026 75.4615 84.2312C75.4812 84.2054 75.5054 84.1841 75.5328 84.1686C75.5601 84.1531 75.5901 84.1436 75.6208 84.1407C75.6516 84.1378 75.6825 84.1416 75.7119 84.1518C75.7413 84.162 75.7686 84.1785 75.7921 84.2002C75.8156 84.222 75.8349 84.2486 75.8488 84.2785C75.8628 84.3084 75.8711 84.341 75.8734 84.3745C75.8757 84.4079 75.8718 84.4415 75.8621 84.4734C75.8523 84.5052 75.8368 84.5346 75.8165 84.5598C75.5216 84.9361 75.2016 85.3286 74.865 85.7266C74.8432 85.7525 74.8167 85.7731 74.7871 85.7873C74.7576 85.8014 74.7256 85.8086 74.6933 85.8086V85.8086ZM76.5369 83.4456C76.4934 83.4456 76.4507 83.4323 76.4138 83.4073C76.3768 83.3823 76.3471 83.3466 76.3278 83.3042C76.3086 83.2618 76.3007 83.2144 76.3049 83.1673C76.3092 83.1202 76.3255 83.0754 76.352 83.0379C76.6572 82.6057 76.9325 82.1865 77.1701 81.7925C77.1868 81.7647 77.2085 81.7407 77.2338 81.7219C77.2591 81.7032 77.2876 81.6901 77.3176 81.6833C77.3476 81.6765 77.3785 81.6762 77.4086 81.6824C77.4387 81.6886 77.4673 81.7011 77.493 81.7194C77.5186 81.7376 77.5406 81.7611 77.5579 81.7886C77.5751 81.8161 77.5872 81.8471 77.5935 81.8796C77.5997 81.9122 77.6 81.9458 77.5943 81.9785C77.5886 82.0112 77.577 82.0424 77.5603 82.0702C77.3163 82.4749 77.0343 82.9043 76.7221 83.3464C76.7003 83.3773 76.6722 83.4023 76.6401 83.4195C76.608 83.4367 76.5727 83.4456 76.5369 83.4456V83.4456ZM78.1489 82.0624C78.0896 82.0622 78.0326 82.0375 77.9895 81.9932C77.9464 81.949 77.9204 81.8886 77.9169 81.8243C77.9133 81.7599 77.9324 81.6966 77.9703 81.647C78.0082 81.5975 78.0621 81.5655 78.121 81.5575C78.5716 81.4944 79.0121 81.3643 79.43 81.1708C79.4871 81.1448 79.5513 81.1445 79.6086 81.1699C79.6658 81.1954 79.7114 81.2445 79.7353 81.3065C79.7593 81.3685 79.7595 81.4382 79.7361 81.5005C79.7127 81.5627 79.6675 81.6122 79.6104 81.6382C79.1529 81.8496 78.6709 81.9917 78.1779 82.0606C78.1683 82.0618 78.1586 82.0624 78.1489 82.0624V82.0624ZM76.7311 82.0105C76.7162 82.0105 76.7014 82.009 76.6868 82.006C76.1987 81.901 75.7262 81.7234 75.2828 81.4783C75.228 81.4478 75.1865 81.3951 75.1674 81.3315C75.1482 81.2679 75.153 81.1987 75.1806 81.139C75.2082 81.0792 75.2565 81.0337 75.3148 81.0125C75.3732 80.9912 75.4369 80.9958 75.4921 81.0254C75.8972 81.2496 76.3289 81.4121 76.7748 81.5083C76.8318 81.5202 76.8826 81.5547 76.9174 81.6051C76.9522 81.6556 76.9684 81.7183 76.963 81.781C76.9575 81.8437 76.9307 81.902 76.8878 81.9444C76.845 81.9869 76.7891 82.0104 76.7311 82.0105V82.0105ZM80.7668 80.91C80.717 80.91 80.6685 80.8927 80.6284 80.8606C80.5882 80.8286 80.5586 80.7834 80.5439 80.7317C80.5291 80.68 80.53 80.6245 80.5463 80.5734C80.5627 80.5223 80.5936 80.4782 80.6347 80.4476C81.0166 80.1603 81.379 79.8435 81.7189 79.4996C81.7414 79.477 81.7678 79.4595 81.7965 79.448C81.8252 79.4365 81.8558 79.4312 81.8864 79.4325C81.917 79.4338 81.947 79.4417 81.9749 79.4556C82.0027 79.4695 82.0277 79.4893 82.0485 79.5137C82.0693 79.5382 82.0854 79.5668 82.096 79.598C82.1066 79.6293 82.1114 79.6624 82.1102 79.6957C82.109 79.7289 82.1018 79.7616 82.089 79.7918C82.0762 79.8221 82.058 79.8492 82.0355 79.8718C81.679 80.2323 81.299 80.5642 80.8984 80.8652C80.8596 80.8943 80.8135 80.91 80.7664 80.91H80.7668ZM78.078 80.8442C78.0385 80.8441 77.9996 80.8332 77.965 80.8123C77.9304 80.7914 77.9012 80.7613 77.8803 80.7248C77.8594 80.6883 77.8473 80.6466 77.8453 80.6036C77.8433 80.5607 77.8514 80.5179 77.8688 80.4793C78.0764 80.0391 78.2306 79.5714 78.3274 79.0881C78.3391 79.0221 78.3746 78.9639 78.4258 78.9263C78.4771 78.8887 78.54 78.8747 78.6007 78.8875C78.6614 78.9003 78.715 78.9388 78.7496 78.9945C78.7842 79.0502 78.7971 79.1185 78.7853 79.1845C78.6807 79.7117 78.5134 80.2219 78.2876 80.7022C78.2684 80.7449 78.2385 80.7808 78.2014 80.8059C78.1642 80.831 78.1213 80.8443 78.0776 80.8442H78.078ZM74.2157 80.6331C74.154 80.6332 74.0948 80.6066 74.0511 80.5593C73.6523 80.1276 73.4502 79.6673 73.4502 79.1899C73.4502 79.1139 73.4554 79.0381 73.4658 78.963C73.4749 78.8966 73.508 78.8368 73.5578 78.7968C73.6075 78.7569 73.6698 78.74 73.731 78.75C73.7921 78.7599 73.8472 78.7959 73.8839 78.8499C73.9207 78.904 73.9362 78.9717 73.927 79.0381C73.9201 79.0885 73.9166 79.1393 73.9166 79.1902C73.9166 79.5275 74.0726 79.8674 74.3804 80.2005C74.4131 80.2359 74.4354 80.2811 74.4444 80.3303C74.4535 80.3795 74.4489 80.4305 74.4313 80.4768C74.4137 80.5232 74.3838 80.5628 74.3454 80.5907C74.307 80.6186 74.2619 80.6335 74.2157 80.6334V80.6331ZM82.8693 78.8256C82.8245 78.8256 82.7807 78.8115 82.7431 78.7851C82.7054 78.7588 82.6756 78.7212 82.6571 78.6768C82.6386 78.6325 82.6322 78.5833 82.6388 78.5352C82.6453 78.4871 82.6645 78.442 82.694 78.4054C82.9892 78.0387 83.2858 77.6374 83.5756 77.2126C83.6126 77.1592 83.6676 77.1238 83.7285 77.1141C83.7895 77.1045 83.8514 77.1215 83.9009 77.1613C83.9504 77.2012 83.9833 77.2606 83.9926 77.3268C84.0018 77.3929 83.9867 77.4604 83.9503 77.5144C83.6531 77.9502 83.3484 78.3623 83.0449 78.7391C83.023 78.7664 82.9959 78.7883 82.9655 78.8032C82.9352 78.8181 82.9022 78.8257 82.8689 78.8256H82.8693ZM74.4849 78.0096C74.436 78.0096 74.3883 77.9929 74.3486 77.9618C74.3089 77.9307 74.2792 77.8868 74.2637 77.8364C74.2482 77.7859 74.2478 77.7315 74.2624 77.6807C74.2769 77.6299 74.3059 77.5854 74.345 77.5535C74.7525 77.229 75.2101 76.9864 75.6963 76.8371C75.7551 76.8202 75.8177 76.8289 75.8708 76.8614C75.9238 76.894 75.963 76.9478 75.98 77.0113C75.997 77.0749 75.9904 77.1431 75.9617 77.2015C75.933 77.2598 75.8844 77.3037 75.8264 77.3236C75.3948 77.4568 74.9882 77.6717 74.6253 77.9585C74.5847 77.9917 74.5353 78.0095 74.4845 78.0092L74.4849 78.0096ZM78.384 77.891C78.345 77.8911 78.3067 77.8805 78.2725 77.8602C78.2383 77.84 78.2093 77.8108 78.1881 77.7752C77.939 77.3566 77.4833 77.2184 77.145 77.1763C77.1143 77.1728 77.0846 77.1627 77.0575 77.1467C77.0304 77.1307 77.0066 77.109 76.9873 77.0828C76.968 77.0567 76.9536 77.0267 76.9451 76.9945C76.9365 76.9623 76.9339 76.9286 76.9375 76.8953C76.941 76.862 76.9505 76.8298 76.9656 76.8006C76.9806 76.7713 77.0009 76.7456 77.0251 76.7249C77.0494 76.7042 77.0772 76.689 77.1069 76.68C77.1366 76.6711 77.1676 76.6686 77.1982 76.6728C77.8266 76.7512 78.3042 77.0377 78.5797 77.5C78.6025 77.5383 78.6154 77.5825 78.6169 77.6281C78.6185 77.6736 78.6088 77.7188 78.5887 77.7588C78.5687 77.7988 78.5391 77.8322 78.503 77.8555C78.4669 77.8788 78.4258 77.8911 78.3838 77.891H78.384ZM84.5736 76.3402C84.5317 76.3402 84.4906 76.3279 84.4546 76.3047C84.4186 76.2814 84.389 76.2481 84.369 76.2081C84.349 76.1681 84.3392 76.123 84.3407 76.0775C84.3423 76.0321 84.3551 75.9879 84.3777 75.9496C84.6279 75.5276 84.8739 75.0851 85.1091 74.6343C85.124 74.605 85.1442 74.5794 85.1683 74.5587C85.1925 74.5379 85.2202 74.5226 85.2498 74.5136C85.2794 74.5046 85.3104 74.502 85.3409 74.5061C85.3715 74.5101 85.401 74.5207 85.4277 74.5371C85.4545 74.5536 85.478 74.5757 85.4969 74.6021C85.5158 74.6285 85.5296 74.6587 85.5377 74.6909C85.5458 74.7232 85.548 74.7568 85.544 74.79C85.5401 74.8232 85.5302 74.8551 85.5148 74.8841C85.2754 75.3433 85.0247 75.794 84.7699 76.224C84.7487 76.2598 84.7196 76.2893 84.6852 76.3097C84.6508 76.3301 84.6122 76.3408 84.573 76.3406L84.5736 76.3402Z" fill="white"/>
<path d="M73.2142 87.4829C73.1681 87.4829 73.1231 87.4681 73.0848 87.4403C73.0464 87.4125 73.0165 87.373 72.9988 87.3268C72.9811 87.2806 72.9764 87.2297 72.9853 87.1805C72.9942 87.1314 73.0163 87.0863 73.0488 87.0508C73.2167 86.8683 73.3798 86.6887 73.5382 86.5118C73.5813 86.4637 73.6403 86.4362 73.7022 86.4353C73.764 86.4345 73.8236 86.4603 73.8679 86.5072C73.9122 86.5541 73.9376 86.6183 73.9384 86.6855C73.9392 86.7527 73.9154 86.8175 73.8722 86.8656C73.7124 87.0438 73.5479 87.2249 73.3788 87.4089C73.3572 87.4324 73.3315 87.451 73.3033 87.4637C73.275 87.4764 73.2448 87.4829 73.2142 87.4829V87.4829Z" fill="white"/>
<defs>
<linearGradient id="paint0_linear_214_138" x1="92" y1="25" x2="92" y2="175" gradientUnits="userSpaceOnUse">
<stop stop-color="#E3ECFA"/>
<stop offset="1" stop-color="#DAE7FF"/>
</linearGradient>
</defs>
</svg>
