<svg width="184" height="199" viewBox="0 0 184 199" fill="none" xmlns="http://www.w3.org/2000/svg">
<path d="M92 175C133.421 175 167 141.421 167 100C167 58.5786 133.421 25 92 25C50.5786 25 17 58.5786 17 100C17 141.421 50.5786 175 92 175Z" fill="url(#paint0_linear_214_138)"/>
<path d="M47.546 129.099C47.965 128.838 52.6931 126.663 76.2147 138.579C76.1462 138.68 76.1171 138.728 76.1171 138.728C76.1171 138.728 51.664 147.677 46.8729 136.653C45.4422 133.371 45.8522 131.111 47.5052 129.124L47.546 129.099Z" fill="#0E84E5"/>
<path d="M126.604 133.608C121.494 138.276 113.48 141.665 105.747 137.159C106.969 136.311 108.231 135.437 109.518 134.533C117.284 129.111 124.124 132.739 126.604 133.608Z" fill="#0E84E5"/>
<path d="M135.758 76.1925C140.979 123.435 128.571 132.009 127.19 133.311C126.79 133.688 126.628 133.661 126.023 133.492L126.013 133.498C123.454 132.761 117.284 129.111 109.518 134.532C108.231 135.436 106.968 136.31 105.747 137.158C97.8246 142.618 91.4271 146.465 86.8181 144.232C82.9087 142.065 79.3838 140.19 76.2148 138.579C52.6932 126.663 47.9651 128.838 47.5461 129.099C48.0322 128.811 52.4912 126.125 58.4952 121.402C58.5157 121.39 58.5361 121.377 58.5405 121.359C66.5657 115.04 77.313 105.08 85.0382 92.2691C90.2971 83.5574 95.442 61.4723 105.369 57.139C125.77 48.869 134.911 66.5832 135.758 76.1925Z" fill="#699CFF"/>
<path d="M113.2 75.3637C113.833 73.5466 113.771 71.8369 113.062 71.545C112.352 71.2531 111.264 72.4894 110.631 74.3065C109.997 76.1236 110.059 77.8332 110.768 78.1252C111.478 78.4171 112.566 77.1808 113.2 75.3637Z" fill="white"/>
<path d="M126.19 77.6821C126.638 75.8013 126.407 74.1089 125.673 73.902C124.938 73.6951 123.979 75.052 123.53 76.9329C123.082 78.8137 123.313 80.5061 124.047 80.713C124.782 80.9199 125.741 79.5629 126.19 77.6821Z" fill="white"/>
<path d="M118.282 84.5878C118.176 84.5877 118.073 84.5481 117.99 84.4755C117.907 84.4029 117.85 84.3017 117.827 84.1887C117.744 83.7796 117.374 82.5691 116.788 82.3892C116.201 82.2093 115.05 82.9078 114.585 83.2742C114.485 83.353 114.36 83.3854 114.238 83.3642C114.116 83.3429 114.006 83.2699 113.934 83.161C113.861 83.0521 113.831 82.9164 113.851 82.7836C113.87 82.6509 113.938 82.532 114.038 82.4532C114.221 82.3088 115.864 81.0529 117.041 81.4136C118.268 81.7899 118.694 83.7507 118.739 83.9731C118.753 84.0471 118.753 84.1238 118.737 84.1976C118.721 84.2713 118.69 84.3402 118.646 84.3992C118.602 84.4581 118.547 84.5057 118.484 84.5384C118.421 84.571 118.352 84.5879 118.282 84.5878H118.282Z" fill="white"/>
<defs>
<linearGradient id="paint0_linear_214_138" x1="92" y1="25" x2="92" y2="175" gradientUnits="userSpaceOnUse">
<stop stop-color="#E3ECFA"/>
<stop offset="1" stop-color="#DAE7FF"/>
</linearGradient>
</defs>
</svg>
