<svg width="184" height="199" viewBox="0 0 184 199" fill="none" xmlns="http://www.w3.org/2000/svg">
<path d="M92 175C133.421 175 167 141.421 167 100C167 58.5786 133.421 25 92 25C50.5786 25 17 58.5786 17 100C17 141.421 50.5786 175 92 175Z" fill="url(#paint0_linear_214_138)"/>
<path d="M94.3428 94.9206L88.952 118.835C88.7519 119.722 88.7153 120.643 88.8443 121.545C88.9733 122.447 89.2654 123.313 89.7039 124.093C90.1424 124.873 90.7187 125.552 91.3999 126.091C92.0811 126.63 92.8538 127.019 93.6739 127.235L120.484 134.304C121.174 142.49 127.438 143.095 129.909 143.375C129.933 143.377 129.957 143.369 129.977 143.354C129.998 143.34 130.013 143.318 130.02 143.293C130.028 143.268 130.027 143.241 130.019 143.216C130.011 143.191 129.995 143.17 129.975 143.156C128.2 141.986 127.67 138.778 127.552 136.167L129.542 136.692C130.362 136.908 131.214 136.948 132.048 136.808C132.882 136.669 133.683 136.353 134.404 135.879C135.125 135.405 135.753 134.781 136.251 134.044C136.75 133.308 137.109 132.472 137.309 131.585L142.699 107.671C142.9 106.784 142.936 105.863 142.807 104.961C142.678 104.059 142.386 103.193 141.948 102.413C141.509 101.633 140.933 100.954 140.252 100.415C139.57 99.8756 138.798 99.487 137.978 99.271L102.109 89.8137C101.289 89.5973 100.438 89.5577 99.6036 89.6972C98.7694 89.8367 97.9689 90.1526 97.2476 90.6269C96.5264 91.1011 95.8986 91.7244 95.4002 92.4612C94.9018 93.1979 94.5425 94.0336 94.3428 94.9206V94.9206Z" fill="#A2BDFF"/>
<path d="M138.816 106.718L123.824 102.765C123.725 102.739 123.626 102.805 123.602 102.912L122.833 106.323C122.809 106.43 122.869 106.538 122.968 106.564L137.96 110.517C138.058 110.543 138.158 110.477 138.182 110.371L138.951 106.959C138.975 106.852 138.915 106.744 138.816 106.718Z" fill="white"/>
<path d="M136.675 116.215L96.0557 105.505C95.957 105.479 95.8574 105.544 95.8334 105.651L95.0643 109.063C95.0402 109.17 95.1007 109.277 95.1995 109.303L135.819 120.013C135.918 120.039 136.017 119.974 136.041 119.867L136.81 116.455C136.834 116.349 136.774 116.241 136.675 116.215Z" fill="#D4E5FF"/>
<path d="M134.534 125.711L93.9151 115.001C93.8164 114.975 93.7168 115.041 93.6927 115.148L92.9236 118.56C92.8996 118.666 92.9601 118.774 93.0588 118.8L133.678 129.51C133.777 129.536 133.877 129.471 133.901 129.364L134.67 125.952C134.694 125.845 134.633 125.737 134.534 125.711Z" fill="#D4E5FF"/>
<path d="M109.438 66.2331L118.253 96.8492C118.58 97.9845 118.697 99.1785 118.598 100.363C118.498 101.547 118.184 102.699 117.673 103.751C117.162 104.804 116.464 105.738 115.619 106.499C114.774 107.26 113.798 107.834 112.748 108.187L78.4253 119.746C78.1476 130.45 70.0495 131.79 66.8578 132.373C66.8261 132.377 66.7939 132.37 66.7664 132.353C66.7388 132.335 66.7175 132.308 66.7057 132.276C66.694 132.244 66.6925 132.209 66.7015 132.175C66.7105 132.142 66.7294 132.113 66.7554 132.093C68.9741 130.415 69.4207 126.199 69.3774 122.793L66.829 123.651C65.7793 124.005 64.6754 124.132 63.5804 124.024C62.4854 123.916 61.4208 123.576 60.4473 123.024C59.4738 122.471 58.6106 121.716 57.907 120.802C57.2033 119.888 56.673 118.834 56.3463 117.698L47.5311 87.0822C47.2038 85.9469 47.0867 84.7529 47.1862 83.5686C47.2858 82.3843 47.6002 81.2328 48.1113 80.1799C48.6225 79.127 49.3205 78.1934 50.1654 77.4324C51.0103 76.6713 51.9856 76.0978 53.0355 75.7445L98.9547 60.2799C100.004 59.926 101.108 59.7993 102.203 59.907C103.298 60.0147 104.363 60.3546 105.337 60.9075C106.31 61.4603 107.173 62.2152 107.877 63.129C108.581 64.0428 109.111 65.0976 109.438 66.2331V66.2331Z" fill="#418DF9"/>
<path d="M77.0079 77.1984L52.4182 85.4691C52.3211 85.5017 52.2669 85.6133 52.2971 85.7182L53.5865 90.2024C53.6167 90.3073 53.7198 90.3659 53.8169 90.3333L78.4066 82.0626C78.5037 82.03 78.5579 81.9184 78.5277 81.8135L77.2383 77.3293C77.2081 77.2244 77.1049 77.1658 77.0079 77.1984Z" fill="white"/>
<path d="M108.039 80.0404L55.9313 97.5899C55.8343 97.6226 55.7801 97.7342 55.8103 97.8391L57.1012 102.322C57.1314 102.427 57.2345 102.486 57.3315 102.453L109.439 84.9034C109.536 84.8708 109.59 84.7592 109.56 84.6543L108.269 80.1712C108.239 80.0663 108.136 80.0077 108.039 80.0404Z" fill="#D4E5FF"/>
<path d="M111.535 92.2604L59.415 109.791C59.3179 109.823 59.2637 109.935 59.2939 110.04L60.5833 114.524C60.6135 114.629 60.7166 114.688 60.8137 114.655L112.934 97.1246C113.031 97.092 113.085 96.9804 113.055 96.8755L111.765 92.3914C111.735 92.2864 111.632 92.2278 111.535 92.2604Z" fill="#D4E5FF"/>
<path d="M105 133H79C77.3431 133 76 134.343 76 136C76 137.657 77.3431 139 79 139H105C106.657 139 108 137.657 108 136C108 134.343 106.657 133 105 133Z" fill="#DFEAFB"/>
<path d="M114 145H70C68.3431 145 67 146.343 67 148C67 149.657 68.3431 151 70 151H114C115.657 151 117 149.657 117 148C117 146.343 115.657 145 114 145Z" fill="#DFEAFB"/>
<defs>
<linearGradient id="paint0_linear_214_138" x1="92" y1="25" x2="92" y2="175" gradientUnits="userSpaceOnUse">
<stop stop-color="#E3ECFA"/>
<stop offset="1" stop-color="#DAE7FF"/>
</linearGradient>
</defs>
</svg>
