<svg width="184" height="199" viewBox="0 0 184 199" fill="none" xmlns="http://www.w3.org/2000/svg">
<path d="M92 175C133.421 175 167 141.421 167 100C167 58.5786 133.421 25 92 25C50.5786 25 17 58.5786 17 100C17 141.421 50.5786 175 92 175Z" fill="url(#paint0_linear_214_138)"/>
<path d="M105.786 99.9087L104.21 109.106L96.7009 152.824L83.175 150.08L91.8477 99.5772L92.2601 97.1706L105.786 99.9087Z" fill="#699CFF"/>
<path d="M139.097 77.9149L134.433 105.085C134.42 105.165 134.392 105.241 134.351 105.309C134.31 105.377 134.258 105.435 134.196 105.481C134.135 105.527 134.066 105.559 133.993 105.576C133.92 105.592 133.844 105.593 133.771 105.579L68.2461 92.2988L75.9584 47.3659L125.716 57.4502C134.734 59.2775 140.724 68.438 139.097 77.9149Z" fill="#A2BDFF"/>
<path d="M89.9538 68.7967L85.3263 95.7564L50.9319 88.7858L55.5593 61.8261C57.263 51.8999 66.3439 45.4134 75.8415 47.3382C85.3391 49.263 91.6575 58.8703 89.9538 68.7967Z" fill="#699CFF"/>
<path d="M105.966 81.3994C103.431 80.8858 101.759 78.209 102.236 75.4293C102.714 72.6496 105.161 70.8073 107.696 71.3213C108.504 71.4862 109.257 71.8807 109.879 72.4647C110.501 73.0487 110.97 73.8013 111.238 74.6459L143.254 81.1346L142.389 86.1738L110.373 79.6851C109.843 80.3683 109.156 80.8869 108.382 81.188C107.608 81.4891 106.774 81.5621 105.966 81.3994V81.3994Z" fill="#418DF9"/>
<path d="M88.8126 69.2922L84.3041 95.559L51.9033 88.9924L56.4122 62.7255C58.0721 53.0545 66.6712 46.6842 75.6183 48.4976C84.5655 50.3109 90.4725 59.6211 88.8126 69.2922Z" fill="#418DF9"/>
<path d="M106.874 78.8539C108.177 78.8539 109.233 77.7063 109.233 76.2908C109.233 74.8752 108.177 73.7277 106.874 73.7277C105.571 73.7277 104.515 74.8752 104.515 76.2908C104.515 77.7063 105.571 78.8539 106.874 78.8539Z" fill="white"/>
<path d="M143.624 81.1167L140.796 97.5936C140.783 97.6646 140.746 97.7274 140.691 97.7682C140.636 97.809 140.569 97.8245 140.503 97.8113L133.069 96.3046C133.056 96.3019 133.045 96.2939 133.037 96.2821C133.03 96.2704 133.027 96.2559 133.03 96.2419L135.895 79.5503C135.897 79.5363 135.904 79.5239 135.915 79.5158C135.926 79.5078 135.939 79.5047 135.952 79.5073L143.584 81.0541C143.597 81.0567 143.609 81.0647 143.616 81.0765C143.623 81.0882 143.626 81.1027 143.624 81.1167V81.1167Z" fill="#699CFF"/>
<path d="M62.6256 79.5666C62.9387 82.069 65.4658 85.0434 65.4658 85.0434C61.615 85.34 59.5296 82.9737 58.6322 81.5358C57.5228 81.8841 56.3826 82.104 55.2305 82.1918C47.3251 82.8006 40.5196 77.1923 40.0281 69.6588C39.5366 62.1253 45.5461 55.5298 53.4516 54.9211C61.3571 54.3123 68.1621 59.9203 68.6535 67.4539C68.9732 72.3542 66.5398 76.8583 62.6256 79.5666Z" fill="white"/>
<path d="M85.3595 95.773C85.0015 96.7576 78.4548 126.091 57.2695 121.797C34.0384 117.523 50.842 88.7773 50.842 88.7773L85.3595 95.773Z" fill="#A2BDFF"/>
<path d="M54.3406 71.1407C55.4261 71.1407 56.3062 70.1845 56.3062 69.0049C56.3062 67.8253 55.4261 66.869 54.3406 66.869C53.255 66.869 52.375 67.8253 52.375 69.0049C52.375 70.1845 53.255 71.1407 54.3406 71.1407Z" fill="#699CFF"/>
<path d="M45.5412 70.2094C46.6333 70.2094 47.5186 69.2473 47.5186 68.0606C47.5186 66.8739 46.6333 65.9119 45.5412 65.9119C44.449 65.9119 43.5637 66.8739 43.5637 68.0606C43.5637 69.2473 44.449 70.2094 45.5412 70.2094Z" fill="#699CFF"/>
<path d="M63.056 72.0509C64.1481 72.0509 65.0335 71.0889 65.0335 69.9022C65.0335 68.7155 64.1481 67.7535 63.056 67.7535C61.9639 67.7535 61.0786 68.7155 61.0786 69.9022C61.0786 71.0889 61.9639 72.0509 63.056 72.0509Z" fill="#699CFF"/>
<path d="M105.786 99.9087L104.21 109.106L91.8477 99.5772L92.26 97.1706L105.786 99.9087Z" fill="#418DF9"/>
<defs>
<linearGradient id="paint0_linear_214_138" x1="92" y1="25" x2="92" y2="175" gradientUnits="userSpaceOnUse">
<stop stop-color="#E3ECFA"/>
<stop offset="1" stop-color="#DAE7FF"/>
</linearGradient>
</defs>
</svg>
