<?xml version="1.0" encoding="UTF-8"?><svg id="Layer_1" xmlns="http://www.w3.org/2000/svg" viewBox="0 0 452.34 409.61"><defs><style>.cls-1{fill:#ff671d;}.cls-2{fill:#a73439;}</style></defs><path class="cls-2" d="M364.53,0H138.65V334.74l61.09-.03V57.73h164.79c25.64,0,25.64,12.09,25.64,17.9v118.69c0,5.8,0,17.89-25.64,17.89h-114.74l46.91,57.76h67.83c44.93,0,86.49-9.23,86.49-75.96l1.32-114.37C452.34,26.79,422.82,0,364.53,0"/><path class="cls-1" d="M269.96,269.93v79.69c0,12.27,3.17,18.4-26.58,18.4h-14.7l-22.55,.05v-.05H86.75c-29.74,0-41.16-2-41.16-25.37V174.92c0-12.79,7.55-24.25,31.38-24.25h122.79l-32.29-41.58H58.99C-4.31,109.09,.06,129.35,.06,169.86v178.98c0,40.51-.69,60.78,62.61,60.78H243.38c35.82,0,66.25,0,66.25-41.44l1.42-47.75s-40.83-50.95-41.09-50.48"/><polygon class="cls-1" points="223.13 212.47 153.4 212.47 199.86 269.93 269.96 269.93 270.03 269.93 223.13 212.47"/><polygon class="cls-2" points="138.66 335.27 199.73 409.61 199.74 322.23 138.66 322.23 138.66 335.27"/></svg>