<svg 
          width="25.57080078125" 
          height="17.958892822265625" fill="none" 
          xmlns="http://www.w3.org/2000/svg">
          <path d="M 17.218019485473633 0.2480773776769638 C 16.862457513809204 -0.0882568210363388 16.30413919687271 -0.081787109375 15.956450462341309 0.262664794921875 C 15.608733624219894 0.6071472465991974 15.59704527258873 1.1653442680835724 15.930024147033691 1.524078369140625 L 22.464019775390625 8.058073997497559 L 0.9000244140625 8.058073997497559 C 0.4029846489429474 8.058073997497559 0.000030517578125 8.461028814315796 0.000030517578125 8.95806884765625 C -0.00384521484375 9.459167957305908 0.398956298828125 9.868682312779129 0.9000244140625 9.873077392578125 L 22.464019775390625 9.873077392578125 L 15.930024147033691 16.3980712890625 C 15.58139082789421 16.75701928138733 15.58139082789421 17.32812476158142 15.930024147033691 17.68707275390625 C 16.099426090717316 17.86086994409561 16.331846803426743 17.958892822265625 16.57452392578125 17.958892822265625 C 16.817230194807053 17.958892822265625 17.04962322115898 17.86086994409561 17.219024658203125 17.68707275390625 L 25.300018310546875 9.60406494140625 C 25.473083272576332 9.436951339244843 25.57080078125 9.206665307283401 25.57080078125 8.966064453125 C 25.57080078125 8.725494310259819 25.473083272576332 8.495208993554115 25.300018310546875 8.32806396484375 L 17.218019485473633 0.2480773776769638 Z" fill="rgb(255,255,255)"/>
        </svg>